<?xml version="1.0" encoding="UTF-8"?>
<svg version="1.1" xmlns="http://www.w3.org/2000/svg" width="600" height="216">
<path d="M0 0 C198 0 396 0 600 0 C600 71.28 600 142.56 600 216 C402 216 204 216 0 216 C0 144.72 0 73.44 0 0 Z " fill="#FEFEFE" transform="translate(0,0)"/>
<path d="M0 0 C0.68774565 -0.00085442 1.37549129 -0.00170885 2.08407772 -0.00258917 C4.3995736 -0.00424253 6.7149978 0.00127506 9.03048706 0.00672913 C10.68593341 0.00701105 12.34137989 0.00685315 13.99682617 0.00628662 C18.50070721 0.00599887 23.0045618 0.01189204 27.50843668 0.01886058 C32.21165744 0.02509778 36.91487877 0.02569821 41.61810303 0.02688599 C50.52869967 0.02999822 59.43928408 0.03821015 68.34987533 0.04823548 C78.49241147 0.05939997 88.63494819 0.06490791 98.77748895 0.06993091 C119.64551989 0.08039285 140.51353981 0.09799021 161.38156128 0.12025452 C161.8498938 1.06707092 162.31822632 2.01388733 162.80075073 2.98939514 C163.42785288 4.25181219 164.0550555 5.51417933 164.68234253 6.77650452 C164.98950195 7.39815491 165.29666138 8.0198053 165.61312866 8.66029358 C167.97579186 13.40742437 170.58451729 17.96524053 173.29562378 22.52259827 C178.78306873 31.87004352 183.79811075 41.50571898 188.96066284 51.03504944 C192.08839539 56.79345286 195.31636859 62.47092876 198.67062378 68.10072327 C199.23523315 69.09716858 199.79984253 70.09361389 200.38156128 71.12025452 C200.78318481 71.73755432 201.18480835 72.35485413 201.59860229 72.99085999 C204.57215072 77.96349861 204.57215072 77.96349861 204.06124878 81.06434631 C203.21045585 83.11929413 202.20952965 84.96102424 201.06906128 86.87025452 C200.68894897 87.56272278 200.30883667 88.25519104 199.91720581 88.96864319 C198.77027012 91.0391941 197.58240194 93.08060254 196.38156128 95.12025452 C195.75636597 96.21466858 195.13117065 97.30908264 194.48703003 98.43666077 C193.34834461 100.40815449 192.19630606 102.37200591 191.02999878 104.32728577 C189.41647021 107.06110786 187.8881458 109.82629752 186.38156128 112.62025452 C184.28630763 116.49870276 182.11492273 120.31962188 179.88156128 124.12025452 C177.23884342 128.62266272 174.69282609 133.16288917 172.21359253 137.75697327 C169.89455541 142.01431007 167.53927308 146.250998 165.18234253 150.48744202 C164.71977051 151.31945129 164.25719849 152.15146057 163.78060913 153.00868225 C162.64786013 155.04602165 161.51483744 157.08320832 160.38156128 159.12025452 C138.69384257 159.19031322 117.00614251 159.24322732 95.31833363 159.27569103 C85.24846935 159.29116466 75.17867536 159.31226367 65.1088562 159.34657288 C56.33273942 159.37646003 47.55667353 159.39582591 38.78050727 159.40252 C34.13291765 159.40643341 29.48547366 159.41564081 24.83793068 159.43744469 C20.46394643 159.45779902 16.09016786 159.46409045 11.71614075 159.45957756 C10.11050995 159.46040323 8.50487231 159.46637521 6.89928246 159.47787094 C4.70686874 159.49279893 2.51523139 159.48920751 0.32279968 159.48101807 C-1.51756001 159.48516613 -1.51756001 159.48516613 -3.39509869 159.489398 C-6.92579809 159.08505509 -8.79595106 158.24108574 -11.61843872 156.12025452 C-12.93093872 153.93275452 -12.93093872 153.93275452 -13.61843872 152.12025452 C-14.27843872 152.12025452 -14.93843872 152.12025452 -15.61843872 152.12025452 C-16.65375156 149.01431598 -16.74917668 146.86261438 -16.75888062 143.60554504 C-16.76459076 142.45879807 -16.7703009 141.31205109 -16.77618408 140.1305542 C-16.77730194 138.87128616 -16.7784198 137.61201813 -16.77957153 136.31459045 C-16.78420062 134.97576765 -16.78922541 133.63694617 -16.7946167 132.29812622 C-16.80773559 128.65952065 -16.81418487 125.02093353 -16.81862736 121.38230801 C-16.82155943 119.10795532 -16.82566454 116.83360766 -16.83013153 114.55925751 C-16.84380628 107.44028521 -16.85347255 100.32132441 -16.85733342 93.20233989 C-16.86181166 84.99047386 -16.87934866 76.7787745 -16.90833402 68.56695914 C-16.92997073 62.21609525 -16.94003879 55.86527818 -16.94137454 49.51437783 C-16.94242132 45.72302356 -16.94830169 41.93182595 -16.96619415 38.14051056 C-16.98270895 34.57163261 -16.98481399 31.00302851 -16.97605515 27.4341259 C-16.97492125 25.50675333 -16.98861304 23.57938972 -17.00280762 21.65206909 C-16.97268241 15.38796003 -16.80085112 10.59125251 -13.61843872 5.12025452 C-8.9230947 0.76847225 -6.32099213 -0.00471013 0 0 Z " fill="#65666A" transform="translate(51.618438720703125,29.879745483398438)"/>
<path d="M0 0 C17.93393002 -0.91707597 17.93393002 -0.91707597 23.57421875 3.59765625 C29.90215793 9.82157451 34.67901977 18.41237317 37 27 C37.66 27 38.32 27 39 27 C39.43570313 27.88300781 39.87140625 28.76601563 40.3203125 29.67578125 C44.74191341 38.60019359 49.27979777 47.43648468 54.375 56 C56 59 56 59 56 62 C56.66 62 57.32 62 58 62 C58.49371094 62.92683594 58.98742187 63.85367188 59.49609375 64.80859375 C60.14313499 66.01827955 60.79027554 67.22791222 61.4375 68.4375 C61.76298828 69.04916016 62.08847656 69.66082031 62.42382812 70.29101562 C63.93715142 73.33716206 63.93715142 73.33716206 66 76 C66.04092937 78.33297433 66.04241723 80.66705225 66 83 C65.34 83 64.68 83 64 83 C63.76796875 83.81082031 63.5359375 84.62164062 63.296875 85.45703125 C61.70110201 89.81656769 59.54627137 93.66404978 57.25 97.6875 C56.33952222 99.30320427 55.42936444 100.91908891 54.51953125 102.53515625 C54.08205566 103.30875488 53.64458008 104.08235352 53.19384766 104.87939453 C51.74833259 107.44703131 50.33821737 110.03268644 48.9375 112.625 C46.1219683 117.80940681 43.22567541 122.94696455 40.32275391 128.08276367 C38.10595059 132.01067669 35.93830221 135.95929271 33.8125 139.9375 C24.57748244 156.76294296 24.57748244 156.76294296 17 159 C11.34130514 159.55233456 5.6672593 159.28980303 0 159 C1.09555274 155.46933229 2.181666 152.38052877 4.25 149.3125 C6.80180149 145.37352736 9.03982804 141.31784488 11.265625 137.1875 C13.30644289 133.43680766 15.40018481 129.71787727 17.5 126 C20.51451044 120.65801866 23.4860409 115.29661889 26.40625 109.90234375 C28.01750512 106.96812181 29.6638852 104.0562207 31.32006836 101.1472168 C32.48890534 99.08210218 33.63783513 97.00681524 34.78515625 94.9296875 C36.16003434 92.44902061 37.58555737 90.08769515 39.12109375 87.6953125 C40.89719665 84.75423888 42.22265868 82.34818703 43 79 C41.87387738 74.71952314 39.55574063 71.56696871 37 68 C35.83378707 66.07469803 34.68817684 64.13677985 33.5625 62.1875 C32.68658203 60.70056641 32.68658203 60.70056641 31.79296875 59.18359375 C29.86391552 55.75836852 28.10406898 52.27880836 26.375 48.75 C24.20078169 44.32892803 21.93873554 40.12400505 19.2578125 35.99609375 C15.4979353 30.02933211 11.84980971 23.84429591 10 17 C9.34 17 8.68 17 8 17 C6.99539469 14.87717331 5.99644398 12.75166979 5 10.625 C4.443125 9.44164062 3.88625 8.25828125 3.3125 7.0390625 C2 4 2 4 2 2 C1.34 2 0.68 2 0 2 C0 1.34 0 0.68 0 0 Z " fill="#346398" transform="translate(222,30)"/>
<path d="M0 0 C4.29 0 8.58 0 13 0 C15 3 15 3 15 6 C15.66 6 16.32 6 17 6 C18.50519387 8.62214328 20.00431319 11.24744208 21.5 13.875 C21.92925781 14.62136719 22.35851562 15.36773437 22.80078125 16.13671875 C23.20683594 16.85214844 23.61289063 17.56757812 24.03125 18.3046875 C24.40830078 18.96452637 24.78535156 19.62436523 25.17382812 20.30419922 C26 22 26 22 26 24 C26.66 24 27.32 24 28 24 C28.53109375 24.94101563 29.0621875 25.88203125 29.609375 26.8515625 C30.32279904 28.10944172 31.03634735 29.36725047 31.75 30.625 C32.09804687 31.24246094 32.44609375 31.85992187 32.8046875 32.49609375 C34.52574181 35.52387447 36.28832907 38.46763785 38.265625 41.3359375 C40 44 40 44 40 46 C40.66 46 41.32 46 42 46 C42.99 47.98 43.98 49.96 45 52 C45.33 34.84 45.66 17.68 46 0 C49.63 0 53.26 0 57 0 C57 23.43 57 46.86 57 71 C45 71 45 71 42.33203125 68.953125 C41.83058594 68.06109375 41.32914063 67.1690625 40.8125 66.25 C40.28269531 65.36828125 39.75289062 64.4865625 39.20703125 63.578125 C38.16634014 61.35528962 37.46526327 59.39918889 37 57 C36.34 57 35.68 57 35 57 C34.69449219 56.40316406 34.38898438 55.80632812 34.07421875 55.19140625 C30.43410361 48.29056825 26.35826512 41.77846513 22.04760742 35.27954102 C18.74922377 30.27735653 15.93122668 25.27620803 13 20 C12.67 36.83 12.34 53.66 12 71 C8.04 71 4.08 71 0 71 C0 47.57 0 24.14 0 0 Z " fill="#F9F9FA" transform="translate(60,74)"/>
<path d="M0 0 C3.96 0 7.92 0 12 0 C12 9.57 12 19.14 12 29 C22.89 29 33.78 29 45 29 C45 19.43 45 9.86 45 0 C48.63 0 52.26 0 56 0 C56 23.43 56 46.86 56 71 C52.37 71 48.74 71 45 71 C45 60.44 45 49.88 45 39 C34.11 39 23.22 39 12 39 C12 49.56 12 60.12 12 71 C8.04 71 4.08 71 0 71 C0 47.57 0 24.14 0 0 Z " fill="#FBFBFC" transform="translate(155,74)"/>
<path d="M0 0 C3.96 0 7.92 0 12 0 C12 23.43 12 46.86 12 71 C8.04 71 4.08 71 0 71 C0 47.57 0 24.14 0 0 Z " fill="#FCFCFC" transform="translate(130,74)"/>
<path d="M0 0 C1.98 0 3.96 0 6 0 C6 8.58 6 17.16 6 26 C2.04 26 -1.92 26 -6 26 C-6.33 25.67 -6.66 25.34 -7 25 C-9.55619004 24.9684421 -12.09780341 25.06826631 -14.65234375 25.16015625 C-17 25 -17 25 -19 23 C-19.375 20.0625 -19.375 20.0625 -19 17 C-16.0060264 13.52699062 -12.39195091 13.42230297 -8 13 C-8 12.34 -8 11.68 -8 11 C-9.65 11 -11.3 11 -13 11 C-13.33 11.66 -13.66 12.32 -14 13 C-15.32 13 -16.64 13 -18 13 C-17.67 11.02 -17.34 9.04 -17 7 C-12.5335942 5.51119807 -8.69943454 5.31090749 -4.29296875 7.09765625 C-2 9 -2 9 -1.51171875 12.13671875 C-1.56972656 13.30847656 -1.62773437 14.48023437 -1.6875 15.6875 C-1.75517578 17.45673828 -1.75517578 17.45673828 -1.82421875 19.26171875 C-1.88222656 20.16535156 -1.94023437 21.06898437 -2 22 C-1.34 22 -0.68 22 0 22 C0 14.74 0 7.48 0 0 Z " fill="#797A7D" transform="translate(415,75)"/>
<path d="M0 0 C1.65 0 3.3 0 5 0 C6.80078125 1.8984375 6.80078125 1.8984375 8.3125 4.375 C8.82425781 5.18710938 9.33601563 5.99921875 9.86328125 6.8359375 C11 9 11 9 11 11 C11.66 11 12.32 11 13 11 C13.33 11.99 13.66 12.98 14 14 C14.33 9.38 14.66 4.76 15 0 C16.65 0 18.3 0 20 0 C20 8.58 20 17.16 20 26 C15 26 15 26 13.5144043 24.53125 C13.12164307 23.8609375 12.72888184 23.190625 12.32421875 22.5 C11.88916016 21.778125 11.45410156 21.05625 11.00585938 20.3125 C10.57080078 19.549375 10.13574219 18.78625 9.6875 18 C9.23310547 17.236875 8.77871094 16.47375 8.31054688 15.6875 C7.19062327 13.80131287 6.09313287 11.90183893 5 10 C4.67 14.95 4.34 19.9 4 25 C2.68 25 1.36 25 0 25 C0 16.75 0 8.5 0 0 Z " fill="#6A6B6F" transform="translate(295,75)"/>
<path d="M0 0 C1.65 0 3.3 0 5 0 C5 3.3 5 6.6 5 10 C8.63 10 12.26 10 16 10 C16 7.03 16 4.06 16 1 C17.65 1 19.3 1 21 1 C21 9.25 21 17.5 21 26 C19.35 26 17.7 26 16 26 C16 22.37 16 18.74 16 15 C12.7 15 9.4 15 6 15 C6 18.63 6 22.26 6 26 C4.02 26 2.04 26 0 26 C0 17.42 0 8.84 0 0 Z " fill="#696A6E" transform="translate(410,112)"/>
<path d="M0 0 C2.39848683 1.86548976 2.90622566 3.38272124 3.6875 6.3125 C4.14330595 10.56668888 4.17284726 12.56830086 1.8125 16.1875 C-0.91294891 18.91294891 -1.74750609 19.25919869 -5.625 19.625 C-9.88786111 19.26374058 -11.33242054 18.29257946 -14.3125 15.3125 C-15.9083009 12.12089819 -15.69171376 8.78529968 -15.3125 5.3125 C-14 2.375 -14 2.375 -12.3125 0.3125 C-8.13576453 -1.07974516 -4.25047497 -1.26365472 0 0 Z " fill="#6C6D71" transform="translate(371.3125,81.6875)"/>
<path d="M0 0 C2.9120743 0.72539035 4.72038418 2.14526537 6.4140625 4.62109375 C7.87985519 8.36955318 7.43841574 11.78719569 6.1640625 15.5390625 C4.01571705 18.20821897 2.60772879 19.31850237 -0.8046875 19.83984375 C-4.53647791 19.97212737 -7.81062169 19.83830252 -10.8359375 17.5390625 C-12.19521082 13.46124253 -12.46998314 9.79835731 -11.8359375 5.5390625 C-8.75510929 0.6693663 -5.52269483 -0.35094047 0 0 Z " fill="#6A6B6F" transform="translate(380.8359375,118.4609375)"/>
<path d="M0 0 C2.70703125 1.1015625 2.70703125 1.1015625 5 3 C5.48828125 6.13671875 5.48828125 6.13671875 5.3125 9.6875 C5.24482422 11.45673828 5.24482422 11.45673828 5.17578125 13.26171875 C5.11777344 14.16535156 5.05976563 15.06898437 5 16 C5.66 16 6.32 16 7 16 C7 16.99 7 17.98 7 19 C4.20807795 19.05380578 1.4171859 19.09357669 -1.375 19.125 C-2.1690625 19.14175781 -2.963125 19.15851563 -3.78125 19.17578125 C-5.85492015 19.19335473 -7.92883241 19.10335168 -10 19 C-12 17 -12 17 -12.375 14.0625 C-12 11 -12 11 -10.4375 9.1875 C-7.32204108 7.66971232 -4.43044042 7.32985004 -1 7 C-1 6.34 -1 5.68 -1 5 C-2.65 5 -4.3 5 -6 5 C-6.33 5.66 -6.66 6.32 -7 7 C-8.32 7 -9.64 7 -11 7 C-10.6875 4.625 -10.6875 4.625 -10 2 C-6.27420911 -0.48386059 -4.41288598 -0.3804212 0 0 Z " fill="#6E6E72" transform="translate(330,81)"/>
<path d="M0 0 C3.74957941 1.0734683 4.95291488 3.26771839 6.9375 6.5546875 C6.9375 8.2046875 6.9375 9.8546875 6.9375 11.5546875 C2.6475 11.5546875 -1.6425 11.5546875 -6.0625 11.5546875 C-5.0725 13.0396875 -5.0725 13.0396875 -4.0625 14.5546875 C-3.340625 14.4103125 -2.61875 14.2659375 -1.875 14.1171875 C0 13.7421875 1.875 13.3671875 3.75 12.9921875 C4.471875 12.8478125 5.19375 12.7034375 5.9375 12.5546875 C5.625 14.9296875 5.625 14.9296875 4.9375 17.5546875 C1.24029853 20.01948848 -1.77405966 20.3389548 -6.0625 19.5546875 C-9.20086313 17.52782798 -10.72120267 16.10171558 -11.5390625 12.39453125 C-11.80517565 8.19974769 -11.39448013 6.06303207 -9.0625 2.4921875 C-5.75640055 0.35699827 -3.87368318 -0.24944172 0 0 Z " fill="#707175" transform="translate(445.0625,118.4453125)"/>
<path d="M0 0 C2.475 0.495 2.475 0.495 5 1 C5.33 2.98 5.66 4.96 6 7 C7.0725 6.896875 8.145 6.79375 9.25 6.6875 C13 7 13 7 15.21875 9.0625 C17.45133592 12.74430835 17.40965441 15.04174442 17.25 19.3125 C17.21390625 20.56675781 17.1778125 21.82101563 17.140625 23.11328125 C17.07101562 24.54220703 17.07101562 24.54220703 17 26 C15.02 26 13.04 26 11 26 C11 21.05 11 16.1 11 11 C9.35 11.33 7.7 11.66 6 12 C5.67 16.62 5.34 21.24 5 26 C3.35 26 1.7 26 0 26 C0 17.42 0 8.84 0 0 Z " fill="#717276" transform="translate(492,112)"/>
<path d="M0 0 C0.78246094 -0.02578125 1.56492187 -0.0515625 2.37109375 -0.078125 C4.5625 0.25 4.5625 0.25 6.3359375 1.37890625 C8.11578277 4.09402054 7.85350806 6.22875029 7.75 9.4375 C7.72292969 10.52417969 7.69585937 11.61085937 7.66796875 12.73046875 C7.63316406 13.56191406 7.59835937 14.39335937 7.5625 15.25 C8.2225 15.25 8.8825 15.25 9.5625 15.25 C9.5625 16.57 9.5625 17.89 9.5625 19.25 C6.95722895 19.35792837 4.35641689 19.43724878 1.75 19.5 C1.01201172 19.53351563 0.27402344 19.56703125 -0.48632812 19.6015625 C-5.92542234 19.70000764 -5.92542234 19.70000764 -8.5 17.4375 C-9.4375 15.25 -9.4375 15.25 -8.625 12 C-8.233125 11.0925 -7.84125 10.185 -7.4375 9.25 C-1.9925 8.26 -1.9925 8.26 3.5625 7.25 C2.5725 6.26 1.5825 5.27 0.5625 4.25 C0.005625 4.58 -0.55125 4.91 -1.125 5.25 C-3.74034522 6.3809601 -5.6181646 6.40662974 -8.4375 6.25 C-6.57623854 1.06505736 -5.47464756 0.10787483 0 0 Z " fill="#656569" transform="translate(461.4375,118.75)"/>
<path d="M0 0 C3.29887477 3.01611407 2.97186237 5.61536823 3.1875 10 C-1.1025 10 -5.3925 10 -9.8125 10 C-9.1525 11.32 -8.4925 12.64 -7.8125 14 C-4.52174004 13.62095792 -4.52174004 13.62095792 -1.8125 12 C-0.14632885 11.95936168 1.52138095 11.957279 3.1875 12 C0.3125 16.875 0.3125 16.875 -0.8125 18 C-4.19436743 18.4312035 -7.43411117 18.46728113 -10.8125 18 C-14.18947309 15.346664 -14.71102554 13.79729931 -15.25 9.5625 C-14.77726582 5.71309312 -13.9049758 3.25496235 -11.8125 0 C-7.51417624 -1.43277459 -4.29219701 -1.52611449 0 0 Z " fill="#646569" transform="translate(554.8125,82)"/>
<path d="M0 0 C2.52775351 3.79163027 2.22443035 6.80874031 2.125 11.1875 C2.11597656 11.93708984 2.10695313 12.68667969 2.09765625 13.45898438 C2.07412578 15.30612654 2.03825561 17.15310412 2 19 C0.35 19 -1.3 19 -3 19 C-3.06058594 18.08476563 -3.12117188 17.16953125 -3.18359375 16.2265625 C-3.30927734 14.44378906 -3.30927734 14.44378906 -3.4375 12.625 C-3.51871094 11.44164063 -3.59992188 10.25828125 -3.68359375 9.0390625 C-3.81084936 6.08481099 -3.81084936 6.08481099 -5 4 C-6.32 4 -7.64 4 -9 4 C-9.33 8.95 -9.66 13.9 -10 19 C-11.65 19 -13.3 19 -15 19 C-15 12.73 -15 6.46 -15 0 C-5.1369863 -1.23287671 -5.1369863 -1.23287671 0 0 Z " fill="#808084" transform="translate(392,82)"/>
<path d="M0 0 C2.4375 1.3125 2.4375 1.3125 4 3 C4 3.99 4 4.98 4 6 C-0.08718695 6.24042276 -3.17679443 5.42258812 -7 4 C-6.18262144 6.18736102 -6.18262144 6.18736102 -3.96875 6.81640625 C-2.74671875 7.18572266 -2.74671875 7.18572266 -1.5 7.5625 C2.90888383 8.90888383 2.90888383 8.90888383 4 10 C4.1875 13.4375 4.1875 13.4375 4 17 C2 19 2 19 -0.53125 19.23046875 C-2.00078125 19.20919922 -2.00078125 19.20919922 -3.5 19.1875 C-4.96953125 19.17783203 -4.96953125 19.17783203 -6.46875 19.16796875 C-9 19 -9 19 -11 18 C-11.625 15.4375 -11.625 15.4375 -12 13 C-10.35 13 -8.7 13 -7 13 C-6.67 13.99 -6.34 14.98 -6 16 C-4.02 15.67 -2.04 15.34 0 15 C0 14.34 0 13.68 0 13 C-0.62648438 12.87882812 -1.25296875 12.75765625 -1.8984375 12.6328125 C-3.12433594 12.38144531 -3.12433594 12.38144531 -4.375 12.125 C-5.18710937 11.96257812 -5.99921875 11.80015625 -6.8359375 11.6328125 C-9 11 -9 11 -11 9 C-11.125 5.375 -11.125 5.375 -11 2 C-7.35187527 -0.33479983 -4.25812212 -0.38018947 0 0 Z " fill="#66676B" transform="translate(571,81)"/>
<path d="M0 0 C1.6875 1.25 1.6875 1.25 2.4375 3.375 C2.56125 4.303125 2.56125 4.303125 2.6875 5.25 C1.0375 5.25 -0.6125 5.25 -2.3125 5.25 C-2.3125 4.59 -2.3125 3.93 -2.3125 3.25 C-4.78516765 3.59444881 -4.78516765 3.59444881 -7.3125 4.25 C-7.6425 4.91 -7.9725 5.57 -8.3125 6.25 C-5.3425 6.58 -2.3725 6.91 0.6875 7.25 C0.6875 7.91 0.6875 8.57 0.6875 9.25 C1.6775 9.58 2.6675 9.91 3.6875 10.25 C4.051365 14.73766834 4.051365 14.73766834 2.51953125 16.89453125 C0.01293654 18.74909066 -1.72157669 18.6499268 -4.8125 18.625 C-5.7715625 18.63273437 -6.730625 18.64046875 -7.71875 18.6484375 C-10.3125 18.25 -10.3125 18.25 -12.15625 16.9140625 C-13.3125 15.25 -13.3125 15.25 -13.3125 12.25 C-11.6625 12.25 -10.0125 12.25 -8.3125 12.25 C-7.9825 12.91 -7.6525 13.57 -7.3125 14.25 C-5.6625 14.25 -4.0125 14.25 -2.3125 14.25 C-2.3125 13.59 -2.3125 12.93 -2.3125 12.25 C-2.93898438 12.06824219 -3.56546875 11.88648437 -4.2109375 11.69921875 C-5.02820313 11.44785156 -5.84546875 11.19648437 -6.6875 10.9375 C-7.49960937 10.69386719 -8.31171875 10.45023438 -9.1484375 10.19921875 C-11.3125 9.25 -11.3125 9.25 -13.3125 6.25 C-13.1875 3.6875 -13.1875 3.6875 -12.3125 1.25 C-8.6542957 -1.59527001 -4.26660191 -1.38376278 0 0 Z " fill="#68686D" transform="translate(474.3125,81.75)"/>
<path d="M0 0 C1.65 0 3.3 0 5 0 C5 4.62 5 9.24 5 14 C6.65 14 8.3 14 10 14 C11.35091528 11.29816945 11.33858058 8.88191794 11.5625 5.875 C11.64628906 4.77929688 11.73007812 3.68359375 11.81640625 2.5546875 C11.87699219 1.71164063 11.93757812 0.86859375 12 0 C13.32 0 14.64 0 16 0 C16 6.27 16 12.54 16 19 C14.35 18.67 12.7 18.34 11 18 C10.67 18.33 10.34 18.66 10 19 C5.96839809 19.26293056 4.44107266 19.29404844 1 17 C-0.18681726 13.43954823 -0.09689832 10.56191663 -0.0625 6.8125 C-0.05347656 5.54019531 -0.04445313 4.26789063 -0.03515625 2.95703125 C-0.02355469 1.98121094 -0.01195312 1.00539063 0 0 Z " fill="#6C6D71" transform="translate(510,82)"/>
<path d="M0 0 C2.48877509 3.34131294 2.2818898 6.22796809 2.0859375 10.21484375 C2.06789063 10.91222656 2.04984375 11.60960938 2.03125 12.328125 C1.98432304 14.04095914 1.91258355 15.75308199 1.8359375 17.46484375 C0.5159375 17.46484375 -0.8040625 17.46484375 -2.1640625 17.46484375 C-2.22464844 16.62179688 -2.28523438 15.77875 -2.34765625 14.91015625 C-2.43144531 13.81445312 -2.51523437 12.71875 -2.6015625 11.58984375 C-2.68277344 10.49929687 -2.76398438 9.40875 -2.84765625 8.28515625 C-2.99407953 5.51755404 -2.99407953 5.51755404 -4.1640625 3.46484375 C-5.4840625 3.46484375 -6.8040625 3.46484375 -8.1640625 3.46484375 C-9.51497778 6.1666743 -9.50264308 8.58292581 -9.7265625 11.58984375 C-9.81035156 12.68554688 -9.89414062 13.78125 -9.98046875 14.91015625 C-10.04105469 15.75320312 -10.10164063 16.59625 -10.1640625 17.46484375 C-11.4840625 17.46484375 -12.8040625 17.46484375 -14.1640625 17.46484375 C-14.1640625 11.52484375 -14.1640625 5.58484375 -14.1640625 -0.53515625 C-3.30554602 -2.344909 -3.30554602 -2.344909 0 0 Z " fill="#626367" transform="translate(457.1640625,82.53515625)"/>
<path d="M0 0 C2.64 0 5.28 0 8 0 C8 0.99 8 1.98 8 3 C6.68 3 5.36 3 4 3 C4 3.99 4 4.98 4 6 C4.99 6 5.98 6 7 6 C7 7.32 7 8.64 7 10 C6.01 10 5.02 10 4 10 C4 14.95 4 19.9 4 25 C2.35 25 0.7 25 -1 25 C-1 20.05 -1 15.1 -1 10 C-1.99 10 -2.98 10 -4 10 C-4 8.68 -4 7.36 -4 6 C-3.01 6 -2.02 6 -1 6 C-0.67 4.02 -0.34 2.04 0 0 Z " fill="#66666B" transform="translate(392,113)"/>
<path d="M0 0 C1.32 0 2.64 0 4 0 C4 1.65 4 3.3 4 5 C5.32 5 6.64 5 8 5 C8 6.32 8 7.64 8 9 C6.68 9 5.36 9 4 9 C4.33 12.3 4.66 15.6 5 19 C5.99 19.33 6.98 19.66 8 20 C8 21.32 8 22.64 8 24 C2.375 24.25 2.375 24.25 -1 22 C-1.29296875 18.9609375 -1.29296875 18.9609375 -1.1875 15.375 C-1.16042969 14.18648437 -1.13335937 12.99796875 -1.10546875 11.7734375 C-1.07066406 10.85820313 -1.03585937 9.94296875 -1 9 C-1.66 9 -2.32 9 -3 9 C-3 7.68 -3 6.36 -3 5 C-2.01 5 -1.02 5 0 5 C0 3.35 0 1.7 0 0 Z " fill="#6E6F73" transform="translate(482,114)"/>
<path d="M0 0 C1.65 0 3.3 0 5 0 C5 1.98 5 3.96 5 6 C5.99 6 6.98 6 8 6 C8 6.99 8 7.98 8 9 C7.01 9 6.02 9 5 9 C5 12.96 5 16.92 5 21 C5.99 21 6.98 21 8 21 C8 21.99 8 22.98 8 24 C5.66705225 24.04241723 3.33297433 24.04092937 1 24 C0 23 0 23 -0.09765625 20.05859375 C-0.08605469 18.86363281 -0.07445312 17.66867188 -0.0625 16.4375 C-0.05347656 15.23996094 -0.04445313 14.04242188 -0.03515625 12.80859375 C-0.02355469 11.88175781 -0.01195312 10.95492187 0 10 C-0.99 10 -1.98 10 -3 10 C-3 8.68 -3 7.36 -3 6 C-2.01 6 -1.02 6 0 6 C0 4.02 0 2.04 0 0 Z " fill="#717276" transform="translate(500,76)"/>
<path d="M0 0 C1.65 0 3.3 0 5 0 C5 1.98 5 3.96 5 6 C5.99 6 6.98 6 8 6 C8 7.32 8 8.64 8 10 C7.01 10 6.02 10 5 10 C5 13.63 5 17.26 5 21 C5.99 21 6.98 21 8 21 C8 21.99 8 22.98 8 24 C5.69 24 3.38 24 1 24 C-0.44207941 21.11584117 -0.09394887 18.58278472 -0.0625 15.375 C-0.05347656 14.18648437 -0.04445313 12.99796875 -0.03515625 11.7734375 C-0.02355469 10.85820313 -0.01195312 9.94296875 0 9 C-0.99 9 -1.98 9 -3 9 C-3 8.01 -3 7.02 -3 6 C-2.01 6 -1.02 6 0 6 C0 4.02 0 2.04 0 0 Z " fill="#6C6D71" transform="translate(339,76)"/>
<path d="M0 0 C1.65 0 3.3 0 5 0 C5 1.98 5 3.96 5 6 C5.99 6 6.98 6 8 6 C8 6.99 8 7.98 8 9 C6.68 9 5.36 9 4 9 C4.33 12.63 4.66 16.26 5 20 C5.99 20.33 6.98 20.66 8 21 C8 22.32 8 23.64 8 25 C5.125 25.1875 5.125 25.1875 2 25 C-0.42130331 21.36804504 -0.21022785 19.61650652 -0.125 15.3125 C-0.09792969 13.54326172 -0.09792969 13.54326172 -0.0703125 11.73828125 C-0.03550781 10.38283203 -0.03550781 10.38283203 0 9 C-0.99 9 -1.98 9 -3 9 C-3 8.01 -3 7.02 -3 6 C-2.01 6 -1.02 6 0 6 C0 4.02 0 2.04 0 0 Z " fill="#69696D" transform="translate(531,76)"/>
<path d="M0 0 C1.32 0 2.64 0 4 0 C4 1.98 4 3.96 4 6 C5.32 6 6.64 6 8 6 C8 6.99 8 7.98 8 9 C6.68 9 5.36 9 4 9 C4.33 12.3 4.66 15.6 5 19 C5.99 19.33 6.98 19.66 8 20 C8 21.32 8 22.64 8 24 C5.66705225 24.04241723 3.33297433 24.04092937 1 24 C0 23 0 23 -0.09765625 19.83984375 C-0.08025391 17.90818359 -0.08025391 17.90818359 -0.0625 15.9375 C-0.05347656 14.64714844 -0.04445313 13.35679688 -0.03515625 12.02734375 C-0.02355469 11.02832031 -0.01195312 10.02929688 0 9 C-0.99 9 -1.98 9 -3 9 C-3 8.01 -3 7.02 -3 6 C-2.01 6 -1.02 6 0 6 C0 4.02 0 2.04 0 0 Z " fill="#626367" transform="translate(481,76)"/>
<path d="M0 0 C1.65 0 3.3 0 5 0 C5 8.58 5 17.16 5 26 C3.35 26 1.7 26 0 26 C0 17.42 0 8.84 0 0 Z " fill="#6A6B6F" transform="translate(434,75)"/>
<path d="M0 0 C1.65 0 3.3 0 5 0 C5 8.25 5 16.5 5 25 C3.35 25 1.7 25 0 25 C0 16.75 0 8.5 0 0 Z " fill="#67686D" transform="translate(416,75)"/>
<path d="M0 0 C3.29887477 3.01611407 2.97186237 5.61536823 3.1875 10 C-1.4325 9.34 -6.0525 8.68 -10.8125 8 C-8.8125 4 -8.8125 4 -6.8125 2 C-9.57473278 2 -10.70531454 3.31425163 -12.8125 5 C-13.1425 4.34 -13.4725 3.68 -13.8125 3 C-10.41628851 -2.09431724 -5.47928827 -1.94819139 0 0 Z " fill="#6E6F73" transform="translate(554.8125,82)"/>
<path d="M0 0 C1.32 0 2.64 0 4 0 C4 8.25 4 16.5 4 25 C2.68 25 1.36 25 0 25 C0 16.75 0 8.5 0 0 Z " fill="#636367" transform="translate(473,113)"/>
<path d="M0 0 C0.33 0 0.66 0 1 0 C1.144375 1.093125 1.28875 2.18625 1.4375 3.3125 C1.87563765 5.28468938 1.87563765 5.28468938 3 7 C5.88294753 8.52843653 8.82055924 9.31308379 12 10 C12 10.66 12 11.32 12 12 C10.02 12.33 8.04 12.66 6 13 C5.67 12.34 5.34 11.68 5 11 C2.47266765 10.34444881 2.47266765 10.34444881 0 10 C0 10.66 0 11.32 0 12 C-0.94875 11.79375 -1.8975 11.5875 -2.875 11.375 C-3.90625 11.25125 -4.9375 11.1275 -6 11 C-6.66 11.66 -7.32 12.32 -8 13 C-10.625 12.625 -10.625 12.625 -13 12 C-13.33 10.68 -13.66 9.36 -14 8 C-9.71 8 -5.42 8 -1 8 C-0.67 5.36 -0.34 2.72 0 0 Z " fill="#E2E2E4" transform="translate(559,84)"/>
<path d="M0 0 C2.4375 1.3125 2.4375 1.3125 4 3 C4 3.99 4 4.98 4 6 C-0.08718695 6.24042276 -3.17679443 5.42258812 -7 4 C-6.67 4.66 -6.34 5.32 -6 6 C-3.47266765 6.65555119 -3.47266765 6.65555119 -1 7 C-2.76956458 9.14210449 -3.87575652 9.96060573 -6.5625 10.8125 C-7.366875 10.874375 -8.17125 10.93625 -9 11 C-11 9 -11 9 -11.125 5.375 C-11.08375 4.26125 -11.0425 3.1475 -11 2 C-7.35187527 -0.33479983 -4.25812212 -0.38018947 0 0 Z " fill="#6E6F73" transform="translate(571,81)"/>
<path d="M0 0 C1.65 0 3.3 0 5 0 C5 6.27 5 12.54 5 19 C3.35 19 1.7 19 0 19 C0 12.73 0 6.46 0 0 Z " fill="#737477" transform="translate(491,82)"/>
<path d="M0 0 C-0.375 2.9375 -0.375 2.9375 -1 6 C-1.99 6.495 -1.99 6.495 -3 7 C-2.67 7.66 -2.34 8.32 -2 9 C-8.38807947 9.48211921 -8.38807947 9.48211921 -11.0625 7.375 C-12 5 -12 5 -11.375 1.8125 C-10.92125 0.884375 -10.4675 -0.04375 -10 -1 C-6.06329512 -2.31223496 -3.87511856 -1.24296256 0 0 Z " fill="#6F7074" transform="translate(464,129)"/>
<path d="M0 0 C4.88135593 4.27118644 4.88135593 4.27118644 5.4375 7.6875 C5 10 5 10 3 12 C-0.125 12.125 -0.125 12.125 -3 12 C-4.50303217 9.61283126 -5.01411453 8.28934794 -4.875 5.4375 C-3.82403075 2.50979994 -2.61277458 1.60137797 0 0 Z " fill="#F3F3F3" transform="translate(378,122)"/>
<path d="M0 0 C1.65 0 3.3 0 5 0 C5 5.94 5 11.88 5 18 C3.35 18 1.7 18 0 18 C0 12.06 0 6.12 0 0 Z " fill="#636468" transform="translate(349,82)"/>
<path d="M0 0 C3.0625 0.25 3.0625 0.25 6 1 C7.38550197 3.77100394 7.1877467 5.9334706 7 9 C6.01 10.485 6.01 10.485 5 12 C2.625 11.6875 2.625 11.6875 0 11 C-2.30163882 7.54754176 -2.34490322 6.05261287 -2 2 C-1.34 1.34 -0.68 0.68 0 0 Z " fill="#F7F7F7" transform="translate(363,85)"/>
<path d="M0 0 C0.66 0 1.32 0 2 0 C2 5.94 2 11.88 2 18 C3.65 18 5.3 18 7 18 C7 18.33 7 18.66 7 19 C2.71 19 -1.58 19 -6 19 C-6 18.67 -6 18.34 -6 18 C-4.02 18 -2.04 18 0 18 C0 17.01 0 16.02 0 15 C-0.99 15 -1.98 15 -3 15 C-3 11.37 -3 7.74 -3 4 C-2.01 4 -1.02 4 0 4 C0 2.68 0 1.36 0 0 Z " fill="#D1D1D3" transform="translate(347,82)"/>
<path d="M0 0 C1.8871875 0.061875 1.8871875 0.061875 3.8125 0.125 C2.3275 1.61 2.3275 1.61 0.8125 3.125 C1.8025 4.775 2.7925 6.425 3.8125 8.125 C0.8425 8.125 -2.1275 8.125 -5.1875 8.125 C-5.1875 7.465 -5.1875 6.805 -5.1875 6.125 C-6.5075 6.455 -7.8275 6.785 -9.1875 7.125 C-7.4328046 1.99589037 -5.59164481 -0.18333262 0 0 Z " fill="#6D6D71" transform="translate(443.1875,118.875)"/>
<path d="M0 0 C2.18714826 3.2807224 2.22647784 4.21149381 2.125 8 C2.10695313 8.86625 2.08890625 9.7325 2.0703125 10.625 C2.03550781 11.800625 2.03550781 11.800625 2 13 C2 13.99 2 14.98 2 16 C1.34 16.66 0.68 17.32 0 18 C0 17.01 0 16.02 0 15 C-1.32 14.67 -2.64 14.34 -4 14 C-4 10.37 -4 6.74 -4 3 C-2.68 3 -1.36 3 0 3 C0 2.01 0 1.02 0 0 Z " fill="#E4E4E5" transform="translate(539,82)"/>
<path d="M0 0 C2.34770643 3.52155964 2.37669614 5.50771843 2.625 9.6875 C2.69976562 10.86699219 2.77453125 12.04648438 2.8515625 13.26171875 C2.90054687 14.16535156 2.94953125 15.06898437 3 16 C2.01 16.66 1.02 17.32 0 18 C0 17.01 0 16.02 0 15 C-0.99 15 -1.98 15 -3 15 C-3 11.04 -3 7.08 -3 3 C-2.01 3 -1.02 3 0 3 C0 2.01 0 1.02 0 0 Z " fill="#EDEDEE" transform="translate(508,82)"/>
<path d="M0 0 C3 0.25 3 0.25 5 2.25 C3.7934375 2.683125 3.7934375 2.683125 2.5625 3.125 C-0.1326468 3.98262568 -0.1326468 3.98262568 -1 6.25 C-0.34 6.25 0.32 6.25 1 6.25 C1 6.91 1 7.57 1 8.25 C2.98 8.25 4.96 8.25 7 8.25 C7 8.91 7 9.57 7 10.25 C5.37536158 10.30395478 3.75021459 10.34277195 2.125 10.375 C1.22007812 10.39820312 0.31515625 10.42140625 -0.6171875 10.4453125 C-3 10.25 -3 10.25 -5 8.25 C-5.25 5.25 -5.25 5.25 -5 2.25 C-3 0.25 -3 0.25 0 0 Z " fill="#646569" transform="translate(323,89.75)"/>
<path d="M0 0 C1.65 0 3.3 0 5 0 C5 3.3 5 6.6 5 10 C4.67 10 4.34 10 4 10 C4 7.36 4 4.72 4 2 C3.34 2 2.68 2 2 2 C2 9.92 2 17.84 2 26 C1.34 26 0.68 26 0 26 C0 17.42 0 8.84 0 0 Z " fill="#737378" transform="translate(410,112)"/>
<path d="M0 0 C-0.6875 1.875 -0.6875 1.875 -2 4 C-2.825 4.28875 -3.65 4.5775 -4.5 4.875 C-5.325 5.24625 -6.15 5.6175 -7 6 C-7.72693904 7.97888961 -8.39816251 9.97954558 -9 12 C-9.99 12.33 -10.98 12.66 -12 13 C-12.05422947 11.5629191 -12.09289723 10.12524538 -12.125 8.6875 C-12.14820313 7.88699219 -12.17140625 7.08648437 -12.1953125 6.26171875 C-12 4 -12 4 -10 1 C-6.52674819 -0.1577506 -3.63932552 -0.06866652 0 0 Z " fill="#67686C" transform="translate(369,81)"/>
<path d="M0 0 C3.25696479 0.41755959 4.63443291 0.63443291 7 3 C7 4.98 7 6.96 7 9 C3.04 9 -0.92 9 -5 9 C-5 8.34 -5 7.68 -5 7 C-1.535 6.505 -1.535 6.505 2 6 C1.01 4.35 0.02 2.7 -1 1 C-0.67 0.67 -0.34 0.34 0 0 Z " fill="#636468" transform="translate(444,120)"/>
<path d="M0 0 C3.14061691 1.2931952 4.34601348 3.01591453 6.125 5.875 C6.375 9.1875 6.375 9.1875 6.125 11.875 C5.465 11.215 4.805 10.555 4.125 9.875 C3.135 9.875 2.145 9.875 1.125 9.875 C-0.525 6.905 -2.175 3.935 -3.875 0.875 C-1.875 -0.125 -1.875 -0.125 0 0 Z " fill="#6E6F73" transform="translate(381.875,119.125)"/>
<path d="M0 0 C0.99 0 1.98 0 3 0 C2.67 1.32 2.34 2.64 2 4 C5.465 5.485 5.465 5.485 9 7 C9 7.66 9 8.32 9 9 C5.7 9 2.4 9 -1 9 C-1.66 7.68 -2.32 6.36 -3 5 C-1.8125 2.25 -1.8125 2.25 0 0 Z " fill="#646569" transform="translate(399,91)"/>
<path d="M0 0 C1.32 0.33 2.64 0.66 4 1 C4.33 1.66 4.66 2.32 5 3 C4.67 3.66 4.34 4.32 4 5 C3.7724985 6.87056791 3.59037189 8.74685958 3.4375 10.625 C3.35371094 11.62789062 3.26992188 12.63078125 3.18359375 13.6640625 C3.12300781 14.43492188 3.06242187 15.20578125 3 16 C2.01 16 1.02 16 0 16 C0 10.72 0 5.44 0 0 Z " fill="#68696D" transform="translate(444,83)"/>
<path d="M0 0 C0.33 0 0.66 0 1 0 C1.33 1.98 1.66 3.96 2 6 C2.66 6 3.32 6 4 6 C4.33 4.68 4.66 3.36 5 2 C5.19335938 2.63808594 5.38671875 3.27617188 5.5859375 3.93359375 C5.84632813 4.75988281 6.10671875 5.58617188 6.375 6.4375 C6.63023437 7.26121094 6.88546875 8.08492187 7.1484375 8.93359375 C7.80882227 11.17798016 7.80882227 11.17798016 10 12 C8.02 12.33 6.04 12.66 4 13 C1.78631706 10.78631706 0.13447079 9.06983375 -0.265625 5.88671875 C-0.25166986 3.92253213 -0.13286356 1.9597375 0 0 Z " fill="#747579" transform="translate(356,87)"/>
<path d="M0 0 C-0.33 1.32 -0.66 2.64 -1 4 C-1.804375 4.12375 -2.60875 4.2475 -3.4375 4.375 C-4.7059375 4.684375 -4.7059375 4.684375 -6 5 C-6.33 5.66 -6.66 6.32 -7 7 C-8.32 7 -9.64 7 -11 7 C-10.6875 4.625 -10.6875 4.625 -10 2 C-6.3558226 -0.4294516 -4.28758728 -0.16179575 0 0 Z " fill="#68696D" transform="translate(330,81)"/>
<path d="M0 0 C0.33 0 0.66 0 1 0 C1.44041451 5.28497409 1.44041451 5.28497409 1 8 C-1.5 10.5 -1.5 10.5 -4 12 C-6.475 11.01 -6.475 11.01 -9 10 C-7.824375 9.1028125 -7.824375 9.1028125 -6.625 8.1875 C-3.85425677 6.08914751 -3.85425677 6.08914751 -2 3 C-1.34 2.01 -0.68 1.02 0 0 Z " fill="#636368" transform="translate(386,126)"/>
<path d="M0 0 C0.99 0 1.98 0 3 0 C3.33 3.3 3.66 6.6 4 10 C4.99 10.33 5.98 10.66 7 11 C7 11.99 7 12.98 7 14 C4.69 14 2.38 14 0 14 C0 9.38 0 4.76 0 0 Z " fill="#5E5F64" transform="translate(501,86)"/>
<path d="M0 0 C0.99 0.33 1.98 0.66 3 1 C2.34 1 1.68 1 1 1 C1 2.65 1 4.3 1 6 C1.66 6 2.32 6 3 6 C3 9.96 3 13.92 3 18 C2.01 18 1.02 18 0 18 C0 12.06 0 6.12 0 0 Z " fill="#5E5F63" transform="translate(378,82)"/>
<path d="M0 0 C2.125 0.9375 2.125 0.9375 4 2 C4 2.66 4 3.32 4 4 C-0.29 4.99 -4.58 5.98 -9 7 C-8.67 5.68 -8.34 4.36 -8 3 C-5.0625 1.8125 -5.0625 1.8125 -2 1 C-1.34 0.67 -0.68 0.34 0 0 Z " fill="#EBEBEC" transform="translate(461,122)"/>
<path d="M0 0 C0 3.63 0 7.26 0 11 C-1.32 11 -2.64 11 -4 11 C-4 7.7 -4 4.4 -4 1 C-1 0 -1 0 0 0 Z " fill="#FEFEFE" transform="translate(348,85)"/>
<path d="M0 0 C0.33 0 0.66 0 1 0 C1 4.95 1 9.9 1 15 C0.01 15 -0.98 15 -2 15 C-2.05406122 13.06280622 -2.09282025 11.12518079 -2.125 9.1875 C-2.14820313 8.10855469 -2.17140625 7.02960938 -2.1953125 5.91796875 C-2 3 -2 3 0 0 Z " fill="#5E5F64" transform="translate(392,85)"/>
<path d="M0 0 C0 1.32 0 2.64 0 4 C-1.65 4 -3.3 4 -5 4 C-5.33 3.01 -5.66 2.02 -6 1 C-7.65 1 -9.3 1 -11 1 C-11 0.67 -11 0.34 -11 0 C-7.01803543 -1.05404945 -4.01804691 -0.84098656 0 0 Z " fill="#E9E9E9" transform="translate(472,93)"/>
<path d="M0 0 C1.98 0 3.96 0 6 0 C5.67 1.32 5.34 2.64 5 4 C0.25 5.125 0.25 5.125 -2 4 C-1.34 2.68 -0.68 1.36 0 0 Z " fill="#EAEAEB" transform="translate(324,92)"/>
<path d="M0 0 C0.94875 0.04125 1.8975 0.0825 2.875 0.125 C2.545 1.445 2.215 2.765 1.875 4.125 C0.225 4.455 -1.425 4.785 -3.125 5.125 C-3.785 4.135 -4.445 3.145 -5.125 2.125 C-3.125 0.125 -3.125 0.125 0 0 Z " fill="#EBEBEC" transform="translate(405.125,91.875)"/>
<path d="M0 0 C2.3125 1.4375 2.3125 1.4375 3.125 3.5625 C3.186875 4.18125 3.24875 4.8 3.3125 5.4375 C1.6625 5.4375 0.0125 5.4375 -1.6875 5.4375 C-1.6875 4.7775 -1.6875 4.1175 -1.6875 3.4375 C-3.3375 3.1075 -4.9875 2.7775 -6.6875 2.4375 C-3.41417157 -0.71459405 -3.41417157 -0.71459405 0 0 Z " fill="#636468" transform="translate(473.6875,81.5625)"/>
<path d="M0 0 C1.65 0 3.3 0 5 0 C5.66 1.32 6.32 2.64 7 4 C4.36 4 1.72 4 -1 4 C-0.67 2.68 -0.34 1.36 0 0 Z " fill="#EEEEEF" transform="translate(440,123)"/>
<path d="M0 0 C1.65 0.33 3.3 0.66 5 1 C5.33 1.99 5.66 2.98 6 4 C3.36 4 0.72 4 -2 4 C-1.34 2.68 -0.68 1.36 0 0 Z " fill="#F3F3F4" transform="translate(547,85)"/>
<path d="M0 0 C4.75 0.875 4.75 0.875 7 2 C7 2.66 7 3.32 7 4 C5.02 4.33 3.04 4.66 1 5 C0.67 3.35 0.34 1.7 0 0 Z " fill="#EFEFF0" transform="translate(564,92)"/>
<path d="M0 0 C2.64 0 5.28 0 8 0 C7.34 1.32 6.68 2.64 6 4 C4.35 3.67 2.7 3.34 1 3 C0.67 2.01 0.34 1.02 0 0 Z " fill="#F4F4F4" transform="translate(545,93)"/>
<path d="M0 0 C1.65 0 3.3 0 5 0 C5 1.32 5 2.64 5 4 C3.02 4 1.04 4 -1 4 C-0.67 2.68 -0.34 1.36 0 0 Z " fill="#EAEAEB" transform="translate(402,85)"/>
<path d="M0 0 C1.65 0 3.3 0 5 0 C5 1.32 5 2.64 5 4 C3.02 4 1.04 4 -1 4 C-0.67 2.68 -0.34 1.36 0 0 Z " fill="#EAEAEB" transform="translate(324,85)"/>
<path d="M0 0 C0.99 0.33 1.98 0.66 3 1 C2.67 1.33 2.34 1.66 2 2 C2.66 2.66 3.32 3.32 4 4 C3.34 4 2.68 4 2 4 C2 4.66 2 5.32 2 6 C0.68 6 -0.64 6 -2 6 C-2 4.35 -2 2.7 -2 1 C-1.34 0.67 -0.68 0.34 0 0 Z " fill="#757579" transform="translate(381,82)"/>
<path d="M0 0 C-0.33 1.32 -0.66 2.64 -1 4 C-2.65 4 -4.3 4 -6 4 C-6 3.01 -6 2.02 -6 1 C-4 0 -4 0 0 0 Z " fill="#FDFDFC" transform="translate(464,130)"/>
<path d="M0 0 C1.32 0.33 2.64 0.66 4 1 C4.33 2.32 4.66 3.64 5 5 C2.69 4.67 0.38 4.34 -2 4 C-1.34 2.68 -0.68 1.36 0 0 Z " fill="#68696D" transform="translate(566,81)"/>
<path d="M0 0 C1.65 0 3.3 0 5 0 C5 1.32 5 2.64 5 4 C2.03 3.505 2.03 3.505 -1 3 C-0.67 2.01 -0.34 1.02 0 0 Z " fill="#DFDFE0" transform="translate(467,85)"/>
<path d="M0 0 C1.65 0 3.3 0 5 0 C5 1.32 5 2.64 5 4 C3.35 4 1.7 4 0 4 C0 2.68 0 1.36 0 0 Z " fill="#6E6F73" transform="translate(491,75)"/>
<path d="M0 0 C1.65 0 3.3 0 5 0 C5 1.32 5 2.64 5 4 C3.35 4 1.7 4 0 4 C0 2.68 0 1.36 0 0 Z " fill="#626367" transform="translate(349,75)"/>
<path d="M0 0 C1.32 0 2.64 0 4 0 C4.33 1.32 4.66 2.64 5 4 C2.69 3.67 0.38 3.34 -2 3 C-1.34 2.01 -0.68 1.02 0 0 Z " fill="#616266" transform="translate(566,89)"/>
</svg>
